<svg id="Layer_2" data-name="Layer 2" xmlns="http://www.w3.org/2000/svg" width="82.878" height="37.68" viewBox="0 0 82.878 37.68">
  <g id="Layer_1" data-name="Layer 1">
    <path id="Path_1" data-name="Path 1" d="M266.218,42.078a109.648,109.648,0,0,1-.788-13.647c0-7.467.845-12.274,2.758-15.879,1.464-3,3.715-4.807,6.7-4.807,3.66,0,6.867,3.691,8.332,9.785h.112c.9-5.493,3.884-11.93,9.517-11.93,3.264,0,5.74,1.974,7.6,4.892,2.419,4.034,3.545,10.557,3.545,20q.029,5.805-.449,11.587Zm15.528-7.467V27.83c0-7.9-2.7-12.531-6.36-12.531-4.44,0-6.188,5.15-6.188,12.7a49.007,49.007,0,0,0,.334,6.609Zm18.179,0a61.146,61.146,0,0,0,.225-6.266c0-7.725-1.857-14.849-7.373-14.849-5.176,0-7.316,6.781-7.316,14.935v6.18Z" transform="translate(-221.113 -4.398)" fill="#dad4d4"/>
    <path id="Path_2" data-name="Path 2" d="M.935,37.68A99.442,99.442,0,0,1,0,23.346C0,15.364,1.135,10.214,3.673,6.609A10.181,10.181,0,0,1,12.222,2.06c5.944,0,9.884,4.807,11.487,10.9h.2c1.2-4.463,4.408-7.124,9.083-8.5C39.27,2.575,43.611,1.2,45.348,0V7.725c-1.269.944-5.143,2.232-10.753,3.862-6.211,1.717-8.549,4.807-8.749,11.587v7.038h19.5V37.68Zm20.5-7.467V22.573c0-7.982-3.406-13.046-8.549-13.046-5.81,0-8.348,5.407-8.415,13.3a39.181,39.181,0,0,0,.534,7.381Z" fill="#dad4d4"/>
  </g>
</svg>
